<svg xmlns="http://www.w3.org/2000/svg" width="39" height="39" viewBox="0 0 39 39">
  <g id="target" opacity="0.452">
    <g id="Shape" stroke-miterlimit="10">
      <path d="M 20.39240074157715 38.74970245361328 L 18.60730171203613 38.74970245361328 L 18.60730171203613 36.67679977416992 L 18.60730171203613 36.44256973266602 L 18.37357139587402 36.42733001708984 C 16.3264217376709 36.29383087158203 14.35034084320068 35.80113983154297 12.50022125244141 34.96295166015625 C 10.64484119415283 34.12239074707031 8.964080810546875 32.95595932006836 7.504601001739502 31.49605178833008 C 6.044421195983887 30.03586196899414 4.877861022949219 28.35482215881348 4.03731107711792 26.49959182739258 C 3.198881149291992 24.64905166625977 2.706301212310791 22.67295074462891 2.57327127456665 20.62619209289551 L 2.558081150054932 20.39240074157715 L 2.323801279067993 20.39240074157715 L 0.2500012218952179 20.39240074157715 L 0.2500012218952179 18.60730171203613 L 2.323801279067993 18.60730171203613 L 2.558081150054932 18.60730171203613 L 2.57327127456665 18.37351036071777 C 2.706311225891113 16.32669067382813 3.198881149291992 14.35063076019287 4.03731107711792 12.50023078918457 C 4.877891063690186 10.64505100250244 6.044441223144531 8.96428108215332 7.504551410675049 7.504601001739502 C 8.96428108215332 6.044441223144531 10.64505100250244 4.877891063690186 12.50023078918457 4.03731107711792 C 14.35062122344971 3.198881149291992 16.32668113708496 2.706311225891113 18.37352180480957 2.57327127456665 L 18.60730171203613 2.558081150054932 L 18.60730171203613 2.323801279067993 L 18.60730171203613 0.2500012218952179 L 20.39240074157715 0.2500012218952179 L 20.39240074157715 2.323801279067993 L 20.39240074157715 2.558081150054932 L 20.62619209289551 2.57327127456665 C 22.67295074462891 2.706301212310791 24.6490421295166 3.19887113571167 26.49959182739258 4.03731107711792 C 28.35482215881348 4.877861022949219 30.03586196899414 6.044421195983887 31.49602127075195 7.504581451416016 C 32.95595932006836 8.964080810546875 34.12239074707031 10.64484119415283 34.96295166015625 12.50022125244141 C 35.80113983154297 14.35034084320068 36.29383087158203 16.3264217376709 36.42733001708984 18.37357139587402 L 36.44256973266602 18.60730171203613 L 36.67679977416992 18.60730171203613 L 38.74970245361328 18.60730171203613 L 38.74970245361328 20.39240074157715 L 36.67679977416992 20.39240074157715 L 36.44256973266602 20.39240074157715 L 36.42733001708984 20.62613105773926 C 36.29384231567383 22.67323112487793 35.80115127563477 24.64935111999512 34.96295166015625 26.49960136413574 C 34.12240982055664 28.35505104064941 32.95597076416016 30.03609085083008 31.49602127075195 31.49602127075195 C 30.03609085083008 32.95597076416016 28.35505104064941 34.12240982055664 26.49960136413574 34.96295166015625 C 24.64935111999512 35.80115127563477 22.67323112487793 36.29383087158203 20.62613105773926 36.42733001708984 L 20.39240074157715 36.44256973266602 L 20.39240074157715 36.67679977416992 L 20.39240074157715 38.74970245361328 Z M 20.39240074157715 32.39451217651367 L 20.39240074157715 34.38630294799805 L 20.39240074157715 34.65604019165039 L 20.66136169433594 34.63558197021484 C 28.06478118896484 34.07239151000977 34.07238006591797 28.06478118896484 34.63558197021484 20.66136169433594 L 34.65604019165039 20.39240074157715 L 34.38630294799805 20.39240074157715 L 32.39440155029297 20.39240074157715 L 32.39440155029297 18.60730171203613 L 34.38630294799805 18.60730171203613 L 34.65604019165039 18.60730171203613 L 34.63558197021484 18.33834075927734 C 34.07239151000977 10.93492126464844 28.06478118896484 4.927321434020996 20.66136169433594 4.364121437072754 L 20.39240074157715 4.343661308288574 L 20.39240074157715 4.613401412963867 L 20.39240074157715 6.605301380157471 L 18.60730171203613 6.605301380157471 L 18.60730171203613 4.613401412963867 L 18.60730171203613 4.343661308288574 L 18.33834075927734 4.364121437072754 C 10.93492126464844 4.927311420440674 4.927321434020996 10.93492126464844 4.364121437072754 18.33834075927734 L 4.343661308288574 18.60730171203613 L 4.613401412963867 18.60730171203613 L 6.605301380157471 18.60730171203613 L 6.605301380157471 20.39240074157715 L 4.614481449127197 20.39240074157715 L 4.344761371612549 20.39240074157715 L 4.365200996398926 20.66135215759277 C 4.927971363067627 28.06479072570801 10.9351110458374 34.07240295410156 18.33834075927734 34.63558197021484 L 18.60730171203613 34.65604019165039 L 18.60730171203613 34.38630294799805 L 18.60730171203613 32.39529037475586 L 20.39240074157715 32.39451217651367 Z" stroke="none"/>
      <path d="M 20.14240074157715 38.49970245361328 L 20.14240074157715 36.67679977416992 L 20.14240074157715 36.20833969116211 L 20.60986137390137 36.17786026000977 C 22.62682151794434 36.04632949829102 24.57370185852051 35.56096267700195 26.39644050598145 34.73522186279297 C 28.22439193725586 33.90715026855469 29.88066101074219 32.75785064697266 31.31925201416016 31.31925201416016 C 32.75785064697266 29.88066101074219 33.90715026855469 28.22439193725586 34.7352294921875 26.39643096923828 C 35.56096267700195 24.57370185852051 36.04632949829102 22.62681198120117 36.17786026000977 20.60986137390137 L 36.20833969116211 20.14240074157715 L 36.67679977416992 20.14240074157715 L 38.49970245361328 20.14240074157715 L 38.49970245361328 18.85730171203613 L 36.67679977416992 18.85730171203613 L 36.20835113525391 18.85730171203613 L 36.17786026000977 18.38984107971191 C 36.04632186889648 16.37283134460449 35.56095123291016 14.42599105834961 34.7352294921875 12.60338115692139 C 33.90713119506836 10.77552127838135 32.75785064697266 9.119531631469727 31.31925201416016 7.681351184844971 C 29.88043212890625 6.242541313171387 28.22415161132813 5.09312105178833 26.39641189575195 4.265031337738037 C 24.57341194152832 3.439071178436279 22.62657165527344 2.953811168670654 20.60997200012207 2.82275128364563 L 20.14240074157715 2.792361259460449 L 20.14240074157715 2.323801279067993 L 20.14240074157715 0.5000012516975403 L 18.85730171203613 0.5000012516975403 L 18.85730171203613 2.323801279067993 L 18.85730171203613 2.792361259460449 L 18.38973045349121 2.82275128364563 C 16.37306213378906 2.953831195831299 14.42626094818115 3.439081192016602 12.60341167449951 4.265021324157715 C 10.77574157714844 5.093141078948975 9.119741439819336 6.242541313171387 7.681301116943359 7.681411266326904 C 6.242541313171387 9.119741439819336 5.093141078948975 10.77574157714844 4.265021324157715 12.60341167449951 C 3.439071178436279 14.42627143859863 2.953821182250977 16.37307167053223 2.82275128364563 18.38973045349121 L 2.792361259460449 18.85730171203613 L 2.323801279067993 18.85730171203613 L 0.5000012516975403 18.85730171203613 L 0.5000012516975403 20.14240074157715 L 2.323801279067993 20.14240074157715 L 2.792361259460449 20.14240074157715 L 2.82275128364563 20.60997200012207 C 2.953821182250977 22.62657165527344 3.439071178436279 24.57341194152832 4.265031337738037 26.39642143249512 C 5.09312105178833 28.22415161132813 6.242541313171387 29.88043212890625 7.681411266326904 31.31930160522461 C 9.119531631469727 32.75785064697266 10.77552127838135 33.90713119506836 12.60339164733887 34.7352294921875 C 14.42599105834961 35.56095123291016 16.37284088134766 36.04632186889648 18.38984107971191 36.17786026000977 L 18.85730171203613 36.20833969116211 L 18.85730171203613 36.67679977416992 L 18.85730171203613 38.49970245361328 L 20.14240074157715 38.49970245361328 M 20.14240074157715 32.64461898803711 L 18.85730171203613 32.64518356323242 L 18.85730171203613 34.38630294799805 L 18.85730171203613 34.92578125 L 18.31937217712402 34.88486099243164 C 10.79412078857422 34.31240081787109 4.687961101531982 28.20577049255371 4.115921020507813 20.68030166625977 L 4.075031280517578 20.14240074157715 L 4.614481449127197 20.14240074157715 L 6.355301380157471 20.14240074157715 L 6.355301380157471 18.85730171203613 L 4.613401412963867 18.85730171203613 L 4.073921203613281 18.85730171203613 L 4.114841461181641 18.31937217712402 C 4.687321186065674 10.79393100738525 10.79394149780273 4.687311172485352 18.31937217712402 4.114841461181641 L 18.85730171203613 4.073921203613281 L 18.85730171203613 4.613401412963867 L 18.85730171203613 6.355301380157471 L 20.14240074157715 6.355301380157471 L 20.14240074157715 4.613401412963867 L 20.14240074157715 4.073921203613281 L 20.68033027648926 4.114841461181641 C 28.20577049255371 4.687321186065674 34.3123893737793 10.79394149780273 34.88486099243164 18.31937217712402 L 34.92578125 18.85730171203613 L 34.38630294799805 18.85730171203613 L 32.64440155029297 18.85730171203613 L 32.64440155029297 20.14240074157715 L 34.38630294799805 20.14240074157715 L 34.92578125 20.14240074157715 L 34.88486099243164 20.68033027648926 C 34.31238174438477 28.20577049255371 28.20576095581055 34.3123893737793 20.68033027648926 34.88486099243164 L 20.14240074157715 34.92578125 L 20.14240074157715 34.38630294799805 L 20.14240074157715 32.64461898803711 M 20.64240074157715 38.99970245361328 L 20.64140129089355 38.99970245361328 L 18.35730171203613 38.99970245361328 L 18.35730171203613 36.67679977416992 C 16.27950096130371 36.54130172729492 14.27386093139648 36.04095077514648 12.39705085754395 35.19067001342773 C 10.51415157318115 34.33764266967773 8.808610916137695 33.154052734375 7.32780122756958 31.67280197143555 C 5.846301078796387 30.1913013458252 4.662600994110107 28.4854907989502 3.809591293334961 26.60276031494141 C 2.958681344985962 24.72468185424805 2.458791255950928 22.71933174133301 2.323801279067993 20.64240074157715 L 1.226806602971919e-06 20.64240074157715 L 1.226806602971919e-06 18.35730171203613 L 2.323801279067993 18.35730171203613 C 2.458831310272217 16.27980041503906 2.959061145782471 14.27417087554932 3.809591293334961 12.39705085754395 C 4.662641048431396 10.51436138153076 5.846341133117676 8.808821678161621 7.32780122756958 7.32780122756958 C 8.808821678161621 5.846341133117676 10.51436138153076 4.662641048431396 12.39705085754395 3.809591293334961 C 14.27498149871826 2.958691120147705 16.28030204772949 2.45880126953125 18.35730171203613 2.323801279067993 L 18.35730171203613 1.226806602971919e-06 L 20.64240074157715 1.226806602971919e-06 L 20.64240074157715 2.323801279067993 C 22.7198314666748 2.458821296691895 24.72550201416016 2.959051132202148 26.60276031494141 3.809591293334961 C 28.4854907989502 4.662600994110107 30.1913013458252 5.846301078796387 31.67280197143555 7.32780122756958 C 33.154052734375 8.808610916137695 34.33764266967773 10.51415157318115 35.19067001342773 12.39705085754395 C 36.04132080078125 14.27468109130859 36.54133224487305 16.28000068664551 36.67679977416992 18.35730171203613 L 38.99970245361328 18.35730171203613 L 38.99970245361328 20.64240074157715 L 36.67679977416992 20.64240074157715 C 36.54130935668945 22.72013092041016 36.04096984863281 24.72580146789551 35.19067001342773 26.60276031494141 C 34.33768081665039 28.4857006072998 33.15410232543945 30.1915111541748 31.67280197143555 31.67280197143555 C 30.1915111541748 33.15410232543945 28.4857006072998 34.33768081665039 26.60276031494141 35.19067001342773 C 24.7249813079834 36.04133987426758 22.71963119506836 36.54133987426758 20.64240074157715 36.67679977416992 L 20.64240074157715 38.99870300292969 L 20.64240074157715 38.99970245361328 Z M 20.64240074157715 32.14440155029297 L 20.64240074157715 34.38630294799805 C 27.92330169677734 33.83243179321289 33.83235168457031 27.92427062988281 34.38630294799805 20.64240074157715 L 32.14440155029297 20.64240074157715 L 32.14440155029297 18.35730171203613 L 34.38630294799805 18.35730171203613 C 33.83243179321289 11.07640075683594 27.92427062988281 5.167351245880127 20.64240074157715 4.613401412963867 L 20.64240074157715 6.855301380157471 L 18.35730171203613 6.855301380157471 L 18.35730171203613 4.613401412963867 C 11.07640075683594 5.167271137237549 5.167351245880127 11.07543087005615 4.613401412963867 18.35730171203613 L 6.855301380157471 18.35730171203613 L 6.855301380157471 20.64240074157715 L 4.614481449127197 20.64240074157715 C 5.167971134185791 27.92377090454102 11.07587146759033 33.83238983154297 18.35730171203613 34.38630294799805 L 18.35730171203613 32.14540100097656 L 20.64240074157715 32.14440155029297 Z" stroke="none" fill="#fff"/>
    </g>
    <g id="Shape-2" data-name="Shape" transform="translate(13.067 11.459)" stroke-miterlimit="10">
      <path d="M 12.61639976501465 15.83209991455078 L 0.2499998807907104 15.83209991455078 L 0.2499998807907104 11.75849914550781 C 0.2499998807907104 10.18812942504883 1.182259917259216 8.772639274597168 2.62503981590271 8.152369499206543 L 2.919529914855957 8.025769233703613 L 2.725009918212891 7.770989418029785 C 2.096179962158203 6.947349548339844 1.763799905776978 5.965329647064209 1.763799905776978 4.931099414825439 C 1.763799905776978 2.349929571151733 3.858479976654053 0.2499995529651642 6.433199882507324 0.2499995529651642 C 9.007920265197754 0.2499995529651642 11.10260009765625 2.349929571151733 11.10260009765625 4.931099414825439 C 11.10260009765625 5.965329647064209 10.77021980285645 6.947349548339844 10.14138984680176 7.770989418029785 L 9.946869850158691 8.025769233703613 L 10.24135971069336 8.152369499206543 C 11.6841402053833 8.772639274597168 12.61639976501465 10.18812942504883 12.61639976501465 11.75849914550781 L 12.61639976501465 15.83209991455078 Z M 4.162499904632568 9.612199783325195 C 2.981509923934937 9.612199783325195 2.020699977874756 10.57502937316895 2.020699977874756 11.75849914550781 L 2.020699977874756 13.80690002441406 L 2.020699977874756 14.05690002441406 L 2.270699977874756 14.05690002441406 L 10.59570026397705 14.05690002441406 L 10.84570026397705 14.05690002441406 L 10.84570026397705 13.80690002441406 L 10.84570026397705 11.75849914550781 C 10.84570026397705 10.57502937316895 9.884889602661133 9.612199783325195 8.703900337219238 9.612199783325195 L 4.162499904632568 9.612199783325195 Z M 6.433199882507324 2.026099443435669 C 4.834849834442139 2.026099443435669 3.534499883651733 3.329279661178589 3.534499883651733 4.931099414825439 C 3.534499883651733 6.532919406890869 4.834849834442139 7.836099624633789 6.433199882507324 7.836099624633789 C 8.031549453735352 7.836099624633789 9.331899642944336 6.532919406890869 9.331899642944336 4.931099414825439 C 9.331899642944336 3.329279661178589 8.031549453735352 2.026099443435669 6.433199882507324 2.026099443435669 Z" stroke="none"/>
      <path d="M 12.36639976501465 15.58209991455078 L 12.36639976501465 11.75849914550781 C 12.36639976501465 10.2881498336792 11.49351024627686 8.962809562683105 10.14262008666992 8.382049560546875 L 9.55364990234375 8.128849983215332 L 9.942680358886719 7.619279384613037 C 10.53796005249023 6.839589595794678 10.85260009765625 5.910029411315918 10.85260009765625 4.931099414825439 C 10.85260009765625 2.48777961730957 8.87006950378418 0.4999995529651642 6.433199882507324 0.4999995529651642 C 3.996329784393311 0.4999995529651642 2.013799905776978 2.48777961730957 2.013799905776978 4.931099414825439 C 2.013799905776978 5.91003942489624 2.328439950942993 6.839599609375 2.923709869384766 7.619279384613037 L 3.312749862670898 8.128839492797852 L 2.723779916763306 8.382049560546875 C 1.372889876365662 8.962809562683105 0.4999998807907104 10.2881498336792 0.4999998807907104 11.75849914550781 L 0.4999998807907104 15.58209991455078 L 12.36639976501465 15.58209991455078 M 4.162499904632568 9.362199783325195 L 8.703900337219238 9.362199783325195 C 10.02273941040039 9.362199783325195 11.09570026397705 10.43717956542969 11.09570026397705 11.75849914550781 L 11.09570026397705 13.80690002441406 L 11.09570026397705 14.30690002441406 L 10.59570026397705 14.30690002441406 L 2.270699977874756 14.30690002441406 L 1.770699858665466 14.30690002441406 L 1.770699858665466 13.80690002441406 L 1.770699858665466 11.75849914550781 C 1.770699858665466 10.43717956542969 2.8436598777771 9.362199783325195 4.162499904632568 9.362199783325195 M 6.433199882507324 1.776099562644958 C 8.169400215148926 1.776099562644958 9.581899642944336 3.191429615020752 9.581899642944336 4.931099414825439 C 9.581899642944336 6.670769691467285 8.169400215148926 8.086099624633789 6.433199882507324 8.086099624633789 C 4.697000026702881 8.086099624633789 3.284499883651733 6.670769691467285 3.284499883651733 4.931099414825439 C 3.284499883651733 3.191429615020752 4.697000026702881 1.776099562644958 6.433199882507324 1.776099562644958 M 12.86639976501465 16.08219909667969 L 12.86549949645996 16.08209991455078 L -1.174926751446037e-07 16.08209991455078 L -1.174926751446037e-07 11.75849914550781 C -1.174926751446037e-07 10.08810997009277 0.9916298985481262 8.582469940185547 2.526299953460693 7.922699451446533 C 1.863779902458191 7.054929733276367 1.513799905776978 6.019919395446777 1.513799905776978 4.931099414825439 C 1.513799905776978 2.212079524993896 3.720629930496216 -4.516601563864242e-07 6.433199882507324 -4.516601563864242e-07 C 9.145770072937012 -4.516601563864242e-07 11.35260009765625 2.212079524993896 11.35260009765625 4.931099414825439 C 11.35260009765625 6.020639419555664 11.00247955322266 7.05510950088501 10.34010028839111 7.922699451446533 C 11.87460994720459 8.582399368286133 12.86639976501465 10.08863925933838 12.86639976501465 11.75849914550781 L 12.86639976501465 16.08119964599609 L 12.86639976501465 16.08219909667969 Z M 4.162499904632568 9.862199783325195 C 3.119359970092773 9.862199783325195 2.270699977874756 10.7128791809082 2.270699977874756 11.75849914550781 L 2.270699977874756 13.80690002441406 L 10.59570026397705 13.80690002441406 L 10.59570026397705 11.75849914550781 C 10.59570026397705 10.7128791809082 9.747039794921875 9.862199783325195 8.703900337219238 9.862199783325195 L 4.162499904632568 9.862199783325195 Z M 6.433199882507324 2.276099443435669 C 4.972700119018555 2.276099443435669 3.784499883651733 3.467129468917847 3.784499883651733 4.931099414825439 C 3.784499883651733 6.395069599151611 4.972700119018555 7.586099624633789 6.433199882507324 7.586099624633789 C 7.893699645996094 7.586099624633789 9.081899642944336 6.395069599151611 9.081899642944336 4.931099414825439 C 9.081899642944336 3.467129468917847 7.893699645996094 2.276099443435669 6.433199882507324 2.276099443435669 Z" stroke="none" fill="#fff"/>
    </g>
  </g>
</svg>
