<?xml version="1.0" encoding="utf-8"?>
<!-- Generator: Adobe Illustrator 23.0.2, SVG Export Plug-In . SVG Version: 6.00 Build 0)  -->
<svg version="1.1" id="Capa_1" xmlns="http://www.w3.org/2000/svg" xmlns:xlink="http://www.w3.org/1999/xlink" x="0px" y="0px"
	 viewBox="0 0 39 39" style="enable-background:new 0 0 39 39;" xml:space="preserve">
<style type="text/css">
	.st0{fill:#017EA7;}
</style>
<g id="target">
	<g id="Shape">
		<path class="st0" d="M20.4,38.7h-1.8v-2.1v-0.2l-0.2,0c-2-0.1-4-0.6-5.9-1.5c-1.9-0.8-3.5-2-5-3.5C6,30,4.9,28.4,4,26.5
			c-0.8-1.9-1.3-3.8-1.5-5.9l0-0.2H2.3H0.3v-1.8h2.1h0.2l0-0.2c0.1-2,0.6-4,1.5-5.9c0.8-1.9,2-3.5,3.5-5C9,6,10.6,4.9,12.5,4
			c1.9-0.8,3.8-1.3,5.9-1.5l0.2,0V2.3V0.3h1.8v2.1v0.2l0.2,0c2,0.1,4,0.6,5.9,1.5c1.9,0.8,3.5,2,5,3.5c1.5,1.5,2.6,3.1,3.5,5
			c0.8,1.9,1.3,3.8,1.5,5.9l0,0.2h0.2h2.1v1.8h-2.1h-0.2l0,0.2c-0.1,2-0.6,4-1.5,5.9c-0.8,1.9-2,3.5-3.5,5c-1.5,1.5-3.1,2.6-5,3.5
			c-1.9,0.8-3.8,1.3-5.9,1.5l-0.2,0v0.2V38.7z M20.4,32.4v2v0.3l0.3,0c7.4-0.6,13.4-6.6,14-14l0-0.3h-0.3h-2v-1.8h2h0.3l0-0.3
			c-0.6-7.4-6.6-13.4-14-14l-0.3,0v0.3v2h-1.8v-2V4.3l-0.3,0c-7.4,0.6-13.4,6.6-14,14l0,0.3h0.3h2v1.8h-2H4.3l0,0.3
			c0.6,7.4,6.6,13.4,14,14l0.3,0v-0.3v-2L20.4,32.4z"/>
		<path class="st0" d="M20.1,38.5v-1.8v-0.5l0.5,0c2-0.1,4-0.6,5.8-1.4c1.8-0.8,3.5-2,4.9-3.4c1.4-1.4,2.6-3.1,3.4-4.9
			c0.8-1.8,1.3-3.8,1.4-5.8l0-0.5h0.5h1.8v-1.3h-1.8h-0.5l0-0.5c-0.1-2-0.6-4-1.4-5.8c-0.8-1.8-2-3.5-3.4-4.9
			c-1.4-1.4-3.1-2.6-4.9-3.4c-1.8-0.8-3.8-1.3-5.8-1.4l-0.5,0V2.3V0.5h-1.3v1.8v0.5l-0.5,0c-2,0.1-4,0.6-5.8,1.4
			c-1.8,0.8-3.5,2-4.9,3.4c-1.4,1.4-2.6,3.1-3.4,4.9c-0.8,1.8-1.3,3.8-1.4,5.8l0,0.5H2.3H0.5v1.3h1.8h0.5l0,0.5c0.1,2,0.6,4,1.4,5.8
			c0.8,1.8,2,3.5,3.4,4.9c1.4,1.4,3.1,2.6,4.9,3.4c1.8,0.8,3.8,1.3,5.8,1.4l0.5,0v0.5v1.8H20.1 M20.1,32.6l-1.3,0v1.7v0.5l-0.5,0
			c-7.5-0.6-13.6-6.7-14.2-14.2l0-0.5h0.5h1.7v-1.3H4.6H4.1l0-0.5c0.6-7.5,6.7-13.6,14.2-14.2l0.5,0v0.5v1.7h1.3V4.6V4.1l0.5,0
			c7.5,0.6,13.6,6.7,14.2,14.2l0,0.5h-0.5h-1.7v1.3h1.7h0.5l0,0.5c-0.6,7.5-6.7,13.6-14.2,14.2l-0.5,0v-0.5V32.6 M20.6,39L20.6,39
			h-2.3v-2.3c-2.1-0.1-4.1-0.6-6-1.5c-1.9-0.9-3.6-2-5.1-3.5c-1.5-1.5-2.7-3.2-3.5-5.1c-0.9-1.9-1.4-3.9-1.5-6H0v-2.3h2.3
			c0.1-2.1,0.6-4.1,1.5-6c0.9-1.9,2-3.6,3.5-5.1c1.5-1.5,3.2-2.7,5.1-3.5c1.9-0.9,3.9-1.4,6-1.5V0h2.3v2.3c2.1,0.1,4.1,0.6,6,1.5
			c1.9,0.9,3.6,2,5.1,3.5c1.5,1.5,2.7,3.2,3.5,5.1c0.9,1.9,1.4,3.9,1.5,6H39v2.3h-2.3c-0.1,2.1-0.6,4.1-1.5,6
			c-0.9,1.9-2,3.6-3.5,5.1c-1.5,1.5-3.2,2.7-5.1,3.5c-1.9,0.9-3.9,1.4-6,1.5V39L20.6,39z M20.6,32.1v2.2c7.3-0.6,13.2-6.5,13.7-13.7
			h-2.2v-2.3h2.2c-0.6-7.3-6.5-13.2-13.7-13.7v2.2h-2.3V4.6C11.1,5.2,5.2,11.1,4.6,18.4h2.2v2.3H4.6c0.6,7.3,6.5,13.2,13.7,13.7
			v-2.2L20.6,32.1z"/>
	</g>
	<g id="Shape-2" transform="translate(13.067 11.459)">
		<path class="st0" d="M12.6,15.8H0.3v-4.1c0-1.6,0.9-3,2.4-3.6L2.9,8L2.7,7.8c-0.6-0.8-1-1.8-1-2.8c0-2.6,2.1-4.7,4.7-4.7
			s4.7,2.1,4.7,4.7c0,1-0.3,2-1,2.8L9.9,8l0.3,0.1c1.4,0.6,2.4,2,2.4,3.6V15.8z M4.2,9.6C3,9.6,2,10.6,2,11.8v2v0.3h0.3h8.3h0.3
			v-0.3v-2c0-1.2-1-2.1-2.1-2.1H4.2z M6.4,2C4.8,2,3.5,3.3,3.5,4.9s1.3,2.9,2.9,2.9s2.9-1.3,2.9-2.9S8,2,6.4,2z"/>
		<path class="st0" d="M12.4,15.6v-3.8c0-1.5-0.9-2.8-2.2-3.4L9.6,8.1l0.4-0.5c0.6-0.8,0.9-1.7,0.9-2.7c0-2.4-2-4.4-4.4-4.4
			S2,2.5,2,4.9c0,1,0.3,1.9,0.9,2.7l0.4,0.5L2.7,8.4C1.4,9,0.5,10.3,0.5,11.8v3.8H12.4 M4.2,9.4h4.5c1.3,0,2.4,1.1,2.4,2.4v2v0.5
			h-0.5H2.3H1.8v-0.5v-2C1.8,10.4,2.8,9.4,4.2,9.4 M6.4,1.8c1.7,0,3.1,1.4,3.1,3.2S8.2,8.1,6.4,8.1S3.3,6.7,3.3,4.9S4.7,1.8,6.4,1.8
			 M12.9,16.1L12.9,16.1L0,16.1v-4.3c0-1.7,1-3.2,2.5-3.8c-0.7-0.9-1-1.9-1-3C1.5,2.2,3.7,0,6.4,0s4.9,2.2,4.9,4.9
			c0,1.1-0.4,2.1-1,3c1.5,0.7,2.5,2.2,2.5,3.8V16.1L12.9,16.1z M4.2,9.9c-1,0-1.9,0.9-1.9,1.9v2h8.3v-2c0-1-0.8-1.9-1.9-1.9H4.2z
			 M6.4,2.3C5,2.3,3.8,3.5,3.8,4.9S5,7.6,6.4,7.6s2.6-1.2,2.6-2.7S7.9,2.3,6.4,2.3z"/>
	</g>
</g>
</svg>
