<?xml version="1.0" encoding="utf-8"?>
<!-- Generator: Adobe Illustrator 23.0.2, SVG Export Plug-In . SVG Version: 6.00 Build 0)  -->
<svg version="1.1" id="Capa_1" xmlns="http://www.w3.org/2000/svg" xmlns:xlink="http://www.w3.org/1999/xlink" x="0px" y="0px"
	 viewBox="0 0 100 100" style="enable-background:new 0 0 100 100;" xml:space="preserve">
<style type="text/css">
	.st0{fill:#017EA7;}
</style>
<g>
	<path class="st0" d="M81.1,26.3L26.3,81.1c-1.5,1.5-3.9,1.5-5.4,0l-1-1c-1.5-1.5-1.5-3.9,0-5.4l54.7-54.7c1.5-1.5,3.9-1.5,5.4,0
		l1,1C82.5,22.4,82.5,24.8,81.1,26.3z"/>
</g>
<g>
	<path class="st0" d="M74.7,81.1L19.9,26.3c-1.5-1.5-1.5-3.9,0-5.4l1-1c1.5-1.5,3.9-1.5,5.4,0l54.7,54.7c1.5,1.5,1.5,3.9,0,5.4l-1,1
		C78.6,82.5,76.2,82.5,74.7,81.1z"/>
</g>
</svg>
