<?xml version="1.0" encoding="utf-8"?>
<!-- Generator: Adobe Illustrator 23.0.2, SVG Export Plug-In . SVG Version: 6.00 Build 0)  -->
<svg version="1.1" id="Capa_1" xmlns="http://www.w3.org/2000/svg" xmlns:xlink="http://www.w3.org/1999/xlink" x="0px" y="0px"
	 viewBox="0 0 38 37" style="enable-background:new 0 0 38 37;" xml:space="preserve">
<style type="text/css">
	.st0{fill:#017EA7;}
</style>
<g id="noun_Data_base_2125542" transform="translate(-0.5)">
	<g id="Group" transform="translate(0.5)">
		<path id="Path" class="st0" d="M16.4,3.9l-0.1-1.2c-0.5,0-0.9,0.1-1.4,0.2l0.2,1.2C15.5,4,15.9,4,16.4,3.9z"/>
		<path id="Path-2" class="st0" d="M13.8,4.4l-0.3-1.2c-1.6,0.3-3.1,0.9-4.3,2l1,0.8C11.3,5.1,12.5,4.6,13.8,4.4z"/>
		<path id="Shape" class="st0" d="M19,37c-1.1,0-2.1-0.7-2.4-1.8H0v-1.2h16.6c0.2-0.9,0.9-1.5,1.8-1.8v-2c-2.9,0-5.8-0.6-8.6-1.7
			c-2.2-1-3.5-2.4-3.5-3.8V5.5C6.3,2.4,11.9,0,19,0s12.7,2.4,12.7,5.5v19.2c0,1.5-1.2,2.8-3.5,3.8c-2.7,1.1-5.6,1.7-8.6,1.7v2
			c0.9,0.2,1.6,0.9,1.8,1.8H38v1.2H21.4C21.1,36.3,20.1,37,19,37z M19,33.3c-0.7,0-1.2,0.6-1.2,1.3c0,0.7,0.6,1.2,1.3,1.2
			c0.7,0,1.2-0.6,1.2-1.2C20.3,33.8,19.7,33.3,19,33.3z M7.6,20.8v3.9c0,2,4.7,4.3,11.4,4.3c2.8,0.1,5.6-0.4,8.2-1.4
			c2-0.8,3.2-1.9,3.2-2.9v-3.9c0,0-0.1,0.1-0.1,0.1l0,0l0,0l0,0l0,0L30.1,21c-0.2,0.2-0.4,0.3-0.6,0.4l0,0c-0.2,0.1-0.4,0.2-0.6,0.4
			l-0.1,0l0,0l-0.1,0.1c-0.2,0.1-0.4,0.2-0.6,0.3l-0.1,0l-0.1,0c-0.3,0.1-0.5,0.2-0.8,0.3l-0.1,0l-0.1,0c-0.2,0.1-0.5,0.2-0.7,0.2
			L26,22.9c-0.3,0.1-0.6,0.2-0.9,0.2c-0.3,0.1-0.7,0.1-1,0.2l-0.3,0.1c-0.3,0.1-0.6,0.1-0.8,0.1l-0.1,0l-0.2,0
			c-0.3,0-0.7,0.1-1.1,0.1l-0.2,0c-0.3,0-0.6,0-0.9,0.1c-0.1,0-0.2,0-0.3,0c-0.4,0-0.8,0-1.2,0s-0.8,0-1.2,0c-0.1,0-0.2,0-0.3,0
			c-0.3,0-0.6,0-0.9-0.1l-0.2,0c-0.4,0-0.7-0.1-1.1-0.1c-0.1,0-0.1,0-0.2,0l-0.1,0c-0.3,0-0.5-0.1-0.8-0.1l-0.3-0.1
			c-0.4-0.1-0.7-0.1-1-0.2S12.3,23,12,22.9l-0.3-0.1c-0.2-0.1-0.5-0.1-0.7-0.2l-0.1,0l-0.1,0c-0.3-0.1-0.5-0.2-0.8-0.3l-0.1,0l0,0
			l0,0c-0.2-0.1-0.4-0.2-0.6-0.3c-0.1,0-0.1-0.1-0.2-0.1l0,0c-0.2-0.1-0.4-0.2-0.6-0.4l0,0c-0.2-0.1-0.4-0.2-0.6-0.4l-0.1-0.1l0,0
			L7.6,20.8C7.7,20.8,7.6,20.8,7.6,20.8z M7.6,14.4v3.9c0,2,4.7,4.3,11.4,4.3s11.4-2.3,11.4-4.3v-3.9c0,0-0.1,0-0.1,0.1l0,0l-0.1,0
			l0,0l0,0l-0.1,0.1c-0.2,0.2-0.4,0.3-0.6,0.4c-0.2,0.1-0.4,0.3-0.6,0.4l-0.1,0.1l-0.1,0c-0.2,0.1-0.4,0.2-0.6,0.3l0,0l0,0l0,0l0,0
			c-0.2,0.1-0.5,0.2-0.8,0.3l-0.1,0l0,0l-0.1,0c-0.2,0.1-0.4,0.2-0.7,0.2l0,0l0,0l-0.2,0c-0.3,0.1-0.6,0.2-0.9,0.2
			c-0.3,0.1-0.7,0.1-1,0.2c0,0-0.1,0-0.1,0l-0.1,0l-0.1,0c-0.3,0.1-0.6,0.1-0.8,0.1l-0.1,0l-0.1,0h0l-0.1,0c-0.3,0-0.7,0.1-1.1,0.1
			l-0.2,0c-0.3,0-0.6,0-0.9,0.1c-0.1,0-0.2,0-0.3,0c-0.4,0-0.8,0-1.2,0s-0.8,0-1.2,0c-0.1,0-0.2,0-0.3,0c-0.3,0-0.6,0-0.9-0.1
			l-0.2,0c-0.4,0-0.7-0.1-1.1-0.1l-0.1,0h0l0,0l-0.1,0c-0.3,0-0.6-0.1-0.8-0.1l-0.1,0h0l0,0l-0.2,0c-0.4-0.1-0.7-0.1-1-0.2
			s-0.6-0.1-0.9-0.2l-0.2,0l-0.1,0c-0.2-0.1-0.5-0.1-0.7-0.2l-0.1,0l-0.1,0c-0.3-0.1-0.5-0.2-0.8-0.3l-0.1,0l0,0l-0.1,0
			c-0.2-0.1-0.4-0.2-0.6-0.3l-0.1,0l-0.1-0.1c-0.3-0.1-0.5-0.3-0.6-0.4s-0.4-0.2-0.6-0.4l-0.1,0l0,0l0,0L7.6,14.4L7.6,14.4
			C7.7,14.4,7.6,14.4,7.6,14.4L7.6,14.4z M7.6,8v3.9c0,2,4.7,4.3,11.4,4.3s11.4-2.3,11.4-4.3V8l0,0c0,0-0.1,0.1-0.1,0.1l0,0l0,0l0,0
			l-0.1,0.1c-0.2,0.2-0.4,0.3-0.6,0.4c-0.2,0.1-0.4,0.3-0.6,0.4l-0.1,0.1l-0.1,0c-0.2,0.1-0.4,0.2-0.6,0.3l0,0l0,0l0,0l0,0l0,0
			c-0.3,0.1-0.5,0.2-0.8,0.3l-0.1,0l0,0l-0.1,0c-0.2,0.1-0.4,0.1-0.7,0.2l0,0l0,0c-0.1,0-0.1,0-0.2,0.1c-0.3,0.1-0.6,0.2-0.9,0.2
			c-0.3,0.1-0.7,0.1-1,0.2c0,0-0.1,0-0.1,0l-0.1,0l-0.1,0c-0.3,0.1-0.6,0.1-0.8,0.1l-0.1,0h0h0l-0.1,0c-0.3,0-0.7,0.1-1.1,0.1
			l-0.2,0c-0.3,0-0.6,0-0.9,0.1h-0.1h-0.1l-0.2,0c-0.4,0-0.8,0-1.2,0s-0.8,0-1.2,0l-0.2,0h-0.1h-0.1c-0.3,0-0.6,0-0.9-0.1l-0.2,0
			c-0.4,0-0.7-0.1-1.1-0.1l-0.1,0l0,0l-0.1,0c-0.3,0-0.6-0.1-0.8-0.1l-0.1,0l0,0h0l-0.2,0c-0.4-0.1-0.7-0.1-1-0.2s-0.6-0.1-0.9-0.2
			l-0.2-0.1l0,0C11.5,10,11.2,9.9,11,9.9l-0.1,0l-0.1,0c-0.3-0.1-0.5-0.2-0.8-0.3l-0.1,0l0,0l0,0C9.7,9.3,9.5,9.2,9.3,9.1l-0.1,0
			L9.1,9C8.9,8.9,8.6,8.8,8.5,8.6S8.1,8.4,7.9,8.2L7.8,8.1l0,0l0,0l0,0l0,0C7.7,8,7.6,8,7.6,8z M19,1.2c-6.7,0-11.4,2.3-11.4,4.3
			S12.3,9.8,19,9.8s11.4-2.3,11.4-4.3S25.7,1.2,19,1.2z"/>
		<rect id="Rectangle" x="18.4" y="12.9" class="st0" width="1.3" height="1.2"/>
		<rect id="Rectangle-2" x="15.8" y="12.9" class="st0" width="1.3" height="1.2"/>
		<rect id="Rectangle-3" x="20.9" y="12.9" class="st0" width="1.3" height="1.2"/>
		<rect id="Rectangle-4" x="18.4" y="19.1" class="st0" width="1.3" height="1.2"/>
		<rect id="Rectangle-5" x="15.8" y="19.1" class="st0" width="1.3" height="1.2"/>
		<rect id="Rectangle-6" x="20.9" y="19.1" class="st0" width="1.3" height="1.2"/>
		<rect id="Rectangle-7" x="18.4" y="25.9" class="st0" width="1.3" height="1.2"/>
		<rect id="Rectangle-8" x="15.8" y="25.9" class="st0" width="1.3" height="1.2"/>
		<rect id="Rectangle-9" x="20.9" y="25.9" class="st0" width="1.3" height="1.2"/>
	</g>
</g>
</svg>
