<svg xmlns="http://www.w3.org/2000/svg" width="38" height="36.999" viewBox="0 0 38 36.999">
  <g id="noun_Data_base_2125542" data-name="noun_Data base_2125542" transform="translate(-0.5)" opacity="0.429">
    <g id="Group" transform="translate(0.5)">
      <path id="Path" d="M1.508,1.226,1.376,0C.908.048.445.11,0,.185L.21,1.4C.619,1.331,1.053,1.273,1.508,1.226Z" transform="translate(14.884 2.713)"/>
      <path id="Path-2" data-name="Path" d="M4.595,1.2,4.3,0A8.9,8.9,0,0,0,0,1.976l.994.764A8.081,8.081,0,0,1,4.595,1.2Z" transform="translate(9.207 3.17)"/>
      <path id="Shape" d="M19,37a2.508,2.508,0,0,1-2.444-1.849H0V33.917H16.556a2.507,2.507,0,0,1,1.81-1.762V30.2A22.442,22.442,0,0,1,9.8,28.52C7.565,27.5,6.333,26.138,6.333,24.688V5.529C6.333,2.428,11.9,0,19,0S31.667,2.428,31.667,5.529V24.688c0,1.451-1.232,2.811-3.469,3.832A22.432,22.432,0,0,1,19.634,30.2v1.951a2.5,2.5,0,0,1,1.81,1.762H38V35.15H21.443A2.508,2.508,0,0,1,19,37Zm0-3.7a1.234,1.234,0,1,0,1.267,1.233A1.251,1.251,0,0,0,19,33.3ZM7.6,20.753l0,3.936c0,2.031,4.683,4.295,11.4,4.295A22.486,22.486,0,0,0,27.219,27.6c2.022-.824,3.181-1.885,3.181-2.91V20.751c-.031.028-.065.055-.1.085l-.028.023-.033.027-.039.032-.037.031-.069.057c-.2.159-.378.288-.558.4l-.013.008c-.184.114-.391.235-.634.37l-.058.03-.039.02-.1.052c-.179.093-.373.187-.578.278l-.076.035-.092.041c-.254.109-.52.214-.792.313l-.094.032-.1.033c-.247.086-.475.159-.7.225l-.25.075c-.331.1-.637.178-.934.247-.318.075-.651.144-.989.205l-.283.051c-.322.053-.588.095-.838.13l-.068.01-.168.024c-.344.045-.709.085-1.084.119l-.248.02c-.3.024-.6.043-.91.059-.107.005-.214.011-.321.014-.425.017-.809.025-1.175.025s-.75-.008-1.174-.025c-.107,0-.214-.009-.321-.014-.337-.017-.635-.036-.91-.059l-.248-.02c-.374-.033-.738-.073-1.084-.119-.057-.007-.112-.015-.167-.024l-.068-.01c-.263-.036-.545-.08-.838-.13l-.283-.051c-.4-.075-.715-.14-.989-.205s-.58-.145-.934-.247l-.25-.075c-.244-.073-.478-.149-.693-.225l-.086-.03-.1-.036c-.278-.1-.544-.206-.792-.313l-.1-.046-.023-.011-.044-.02c-.2-.09-.4-.184-.579-.278-.057-.028-.11-.057-.161-.084l-.034-.018c-.24-.128-.448-.249-.634-.37l-.014-.008c-.179-.117-.361-.249-.558-.4l-.1-.078-.049-.041-.06-.049C7.663,20.806,7.63,20.779,7.6,20.753Zm0-6.385,0,3.936c0,2.032,4.682,4.3,11.4,4.3s11.4-2.264,11.4-4.3V14.369c-.027.024-.056.049-.089.075l-.018.015-.059.048-.048.041-.013.012-.078.063c-.211.166-.389.3-.563.408-.219.14-.44.264-.646.377l-.136.072-.054.029c-.188.1-.385.192-.584.281l-.049.023-.039.018-.048.021-.029.013c-.243.105-.51.211-.795.314l-.094.033-.025.008-.07.023c-.213.075-.447.151-.7.227l-.044.014-.044.013-.159.047c-.326.1-.632.176-.935.247-.323.076-.656.145-.99.205-.044.009-.089.017-.134.024l-.058.011-.09.016c-.317.052-.584.094-.838.13l-.051.008-.054.008-.024,0-.106.015c-.331.044-.7.084-1.085.119l-.247.02c-.3.024-.6.043-.91.059-.107.005-.214.011-.322.014-.421.017-.805.025-1.174.025s-.753-.008-1.174-.025c-.108,0-.215-.009-.322-.014-.315-.016-.612-.035-.91-.059l-.247-.02c-.382-.034-.746-.074-1.085-.119l-.128-.018-.015,0-.036-.005-.056-.008c-.282-.038-.564-.082-.839-.13l-.057-.011-.02,0-.037-.007-.169-.031c-.395-.074-.709-.139-.99-.205s-.593-.149-.935-.247l-.158-.047-.089-.026c-.242-.074-.477-.15-.7-.227l-.092-.031-.094-.033c-.28-.1-.548-.207-.8-.314l-.065-.03-.044-.02-.054-.025c-.2-.09-.4-.184-.584-.281l-.058-.03-.132-.071c-.254-.137-.464-.261-.643-.377s-.354-.241-.564-.407l-.056-.046-.039-.033-.046-.039L7.7,14.455l-.023-.019C7.657,14.418,7.627,14.394,7.6,14.369Zm0-6.389,0,3.936c0,2.032,4.682,4.3,11.4,4.3s11.4-2.264,11.4-4.3V7.979l0,0c-.03.026-.068.057-.112.092l-.028.023-.009.008-.013.01-.141.118c-.216.17-.389.3-.561.407-.216.138-.438.263-.646.377l-.136.072-.054.029c-.177.091-.374.186-.584.281l-.049.023-.039.018L28,9.451l-.024.011-.029.013c-.256.11-.523.216-.795.314l-.094.033-.025.008-.07.023c-.213.075-.441.149-.7.226l-.043.013L26.2,10.1c-.052.016-.118.036-.182.053-.313.092-.628.175-.935.247-.333.077-.666.146-.99.2-.044.009-.089.017-.134.024l-.058.011-.09.016c-.332.055-.6.1-.838.131l-.1.014-.009,0-.014,0-.117.016c-.338.044-.7.085-1.085.12l-.247.019c-.292.025-.6.046-.91.061l-.079,0-.081,0-.162.007c-.418.017-.8.025-1.174.025s-.757-.008-1.174-.025l-.162-.007-.081,0-.079,0c-.283-.015-.589-.036-.91-.061l-.247-.019c-.381-.035-.746-.075-1.085-.12l-.093-.013-.043-.006-.1-.014c-.283-.04-.565-.084-.839-.131l-.057-.01-.034-.006-.023,0L13.9,10.6c-.378-.069-.7-.136-.99-.2s-.586-.148-.935-.247l-.218-.065-.03-.009c-.255-.077-.483-.151-.7-.226l-.092-.031-.094-.033c-.261-.094-.528-.2-.8-.314l-.065-.03-.044-.02L9.888,9.4C9.678,9.3,9.481,9.21,9.3,9.119l-.058-.03-.132-.071c-.257-.139-.467-.263-.643-.377s-.357-.244-.564-.407l-.141-.118L7.752,8.1,7.734,8.09l-.011-.008-.009-.007C7.675,8.043,7.635,8.011,7.6,7.979ZM19,1.233c-6.718,0-11.4,2.264-11.4,4.3s4.682,4.3,11.4,4.3,11.4-2.264,11.4-4.3S25.718,1.233,19,1.233Z"/>
      <rect id="Rectangle" width="1.267" height="1.233" transform="translate(18.367 12.95)"/>
      <rect id="Rectangle-2" data-name="Rectangle" width="1.267" height="1.233" transform="translate(15.833 12.95)"/>
      <rect id="Rectangle-3" data-name="Rectangle" width="1.267" height="1.233" transform="translate(20.9 12.95)"/>
      <rect id="Rectangle-4" data-name="Rectangle" width="1.267" height="1.233" transform="translate(18.367 19.117)"/>
      <rect id="Rectangle-5" data-name="Rectangle" width="1.267" height="1.233" transform="translate(15.833 19.117)"/>
      <rect id="Rectangle-6" data-name="Rectangle" width="1.267" height="1.233" transform="translate(20.9 19.117)"/>
      <rect id="Rectangle-7" data-name="Rectangle" width="1.267" height="1.233" transform="translate(18.367 25.9)"/>
      <rect id="Rectangle-8" data-name="Rectangle" width="1.267" height="1.233" transform="translate(15.833 25.9)"/>
      <rect id="Rectangle-9" data-name="Rectangle" width="1.267" height="1.233" transform="translate(20.9 25.9)"/>
    </g>
  </g>
</svg>
