<?xml version="1.0" encoding="utf-8"?>
<!-- Generator: Adobe Illustrator 23.0.2, SVG Export Plug-In . SVG Version: 6.00 Build 0)  -->
<svg version="1.1" id="Capa_1" xmlns="http://www.w3.org/2000/svg" xmlns:xlink="http://www.w3.org/1999/xlink" x="0px" y="0px"
	 viewBox="0 0 17.9 16.2" style="enable-background:new 0 0 17.9 16.2;" xml:space="preserve">
<style type="text/css">
	.st0{fill:#FFFFFF;}
</style>
<g>
	<path class="st0" d="M2.9,0.5c-0.2,0-0.4,0.2-0.4,0.4V2H1.1C0.8,2,0.6,2.1,0.6,2.4v12.7c0,0.2,0.2,0.4,0.4,0.4h15.9
		c0.2,0,0.4-0.2,0.4-0.4V2.4c0-0.2-0.2-0.4-0.4-0.4h-1.4V0.9c0-0.2-0.2-0.4-0.4-0.4s-0.4,0.2-0.4,0.4V2h-2.2V0.9
		c0-0.2-0.2-0.4-0.4-0.4s-0.4,0.2-0.4,0.4V2H9.4V0.9c0-0.2-0.2-0.4-0.4-0.4S8.6,0.7,8.6,0.9V2H6.4V0.9c0-0.2-0.2-0.4-0.4-0.4
		S5.5,0.7,5.5,0.9V2H3.3V0.9C3.3,0.7,3.1,0.5,2.9,0.5z M5.5,2.8v1.1c0,0.2,0.2,0.4,0.4,0.4s0.4-0.2,0.4-0.4V2.8h2.2v1.1
		c0,0.2,0.2,0.4,0.4,0.4s0.4-0.2,0.4-0.4V2.8h2.2v1.1c0,0.2,0.2,0.4,0.4,0.4s0.4-0.2,0.4-0.4V2.8h2.2v1.1c0,0.2,0.2,0.4,0.4,0.4
		s0.4-0.2,0.4-0.4V2.8h1v11.9h-15V2.8h1v1.1c0,0.2,0.2,0.4,0.4,0.4s0.4-0.2,0.4-0.4V2.8H5.5z"/>
	<path class="st0" d="M12,9.3h2.7c0.2,0,0.4-0.2,0.4-0.4V6.2c0-0.2-0.2-0.4-0.4-0.4H12c-0.2,0-0.4,0.2-0.4,0.4v2.7
		C11.6,9.2,11.8,9.3,12,9.3z M12.4,6.6h1.9v1.9h-1.9C12.4,8.5,12.4,6.6,12.4,6.6z"/>
	<path class="st0" d="M7.7,13.6h2.7c0.2,0,0.4-0.2,0.4-0.4v-2.7c0-0.2-0.2-0.4-0.4-0.4H7.7c-0.2,0-0.4,0.2-0.4,0.4v2.7
		C7.3,13.4,7.5,13.6,7.7,13.6z M8.1,10.9H10v1.9H8.1V10.9z"/>
	<path class="st0" d="M12,13.6h2.7c0.2,0,0.4-0.2,0.4-0.4v-2.7c0-0.2-0.2-0.4-0.4-0.4H12c-0.2,0-0.4,0.2-0.4,0.4v2.7
		C11.6,13.4,11.8,13.6,12,13.6z M12.4,10.9h1.9v1.9h-1.9C12.4,12.8,12.4,10.9,12.4,10.9z"/>
</g>
</svg>
