<svg id="Icons_Settings" data-name="Icons/Settings" xmlns="http://www.w3.org/2000/svg" width="30" height="30" viewBox="0 0 30 30">
  <path id="Icons_Settings-2" data-name="Icons/Settings" d="M17.168,30H12.832a.7.7,0,0,1-.7-.586l-.547-3.594A11.353,11.353,0,0,1,9.824,25.1L7.07,27.187a.747.747,0,0,1-.489.176.7.7,0,0,1-.488-.215l-.2-.178a22.759,22.759,0,0,1-3.026-3.1.759.759,0,0,1-.137-.449.736.736,0,0,1,.157-.449c.3-.411.626-.821.937-1.218.37-.472.753-.959,1.113-1.457a10.482,10.482,0,0,1-.8-1.934L.566,17.832a.71.71,0,0,1-.566-.7V12.793a.757.757,0,0,1,.527-.7l3.632-.546a10.356,10.356,0,0,1,.762-1.8c-.688-.971-1.411-1.869-2.09-2.7a.717.717,0,0,1-.2-.469.748.748,0,0,1,.175-.449c.483-.664,3.109-3.5,3.769-3.5a.864.864,0,0,1,.509.2l2.695,2.09a11.685,11.685,0,0,1,1.778-.742q.025-.216.049-.435a21.922,21.922,0,0,1,.518-3.2.712.712,0,0,1,.7-.547h4.336a.7.7,0,0,1,.7.586l.546,3.594a11.479,11.479,0,0,1,1.759.723l2.773-2.09a.662.662,0,0,1,.469-.175.764.764,0,0,1,.488.2l.322.3a21.918,21.918,0,0,1,2.9,3.024.669.669,0,0,1,.137.429.737.737,0,0,1-.156.449c-.307.415-.632.829-.946,1.23-.368.469-.748.953-1.105,1.447a10.736,10.736,0,0,1,.8,1.913l3.574.547a.71.71,0,0,1,.566.7v4.336a.748.748,0,0,1-.546.7l-3.613.547a11.028,11.028,0,0,1-.761,1.778c.681.983,1.43,1.892,2.09,2.695a.774.774,0,0,1,.2.489.65.65,0,0,1-.176.449c-.436.581-3.1,3.5-3.769,3.5a.98.98,0,0,1-.508-.176l-2.7-2.109a11.726,11.726,0,0,1-1.778.742q-.025.217-.049.438a22.014,22.014,0,0,1-.517,3.2A.714.714,0,0,1,17.168,30ZM15,10a5,5,0,1,0,5,5A5.006,5.006,0,0,0,15,10Z" fill="#fff"/>
</svg>
