<?xml version="1.0" encoding="utf-8"?>
<!-- Generator: Adobe Illustrator 23.0.2, SVG Export Plug-In . SVG Version: 6.00 Build 0)  -->
<svg version="1.1" id="Capa_1" xmlns="http://www.w3.org/2000/svg" xmlns:xlink="http://www.w3.org/1999/xlink" x="0px" y="0px"
	 viewBox="0 0 27.8 34.3" style="enable-background:new 0 0 27.8 34.3;" xml:space="preserve">
<style type="text/css">
	.st0{display:none;}
	.st1{display:inline;}
	.st2{fill:#FFFFFF;}
</style>
<g class="st0">
	<rect x="-331" y="-132.3" class="st1" width="404.7" height="211.3"/>
</g>
<g class="st0">
	<g class="st1">
		<path d="M26.5,0h-21c-1.1,0-2,0.9-2,2v28c0,1.1,0.9,2,2,2h21c1.1,0,2-0.9,2-2V2C28.5,0.9,27.6,0,26.5,0z M28,30
			c0,0.8-0.7,1.5-1.5,1.5h-21C4.7,31.5,4,30.8,4,30V2c0-0.8,0.7-1.5,1.5-1.5h21C27.3,0.5,28,1.2,28,2V30z"/>
		<rect x="8.5" y="24.8" width="15" height="0.5"/>
		<rect x="8.5" y="21.3" width="15" height="0.5"/>
		<polygon points="10.4,13.4 11.5,11.7 12.6,13.4 13.9,13.4 12.1,10.9 13.7,8.4 12.5,8.4 11.5,10 10.5,8.4 9.4,8.4 10.9,10.8 
			9.2,13.4 		"/>
		<polygon points="17.9,12.6 15.4,12.6 15.4,8.5 14.4,8.5 14.4,13.4 17.9,13.4 		"/>
		<path d="M20.5,12.7c-0.3,0-0.6-0.1-0.7-0.2c-0.2-0.2-0.3-0.4-0.4-0.7l-1,0.1c0.1,0.6,0.3,1,0.6,1.3s0.8,0.4,1.5,0.4
			c0.4,0,0.8-0.1,1.1-0.2c0.3-0.1,0.5-0.3,0.7-0.6s0.2-0.5,0.2-0.8s-0.1-0.6-0.2-0.8s-0.3-0.4-0.6-0.5c-0.2-0.1-0.6-0.2-1.1-0.4
			c-0.5-0.1-0.8-0.2-0.9-0.3s-0.1-0.2-0.1-0.3s0.1-0.2,0.2-0.3c0.2-0.1,0.4-0.2,0.7-0.2c0.3,0,0.5,0.1,0.6,0.2
			c0.1,0.1,0.2,0.3,0.3,0.6h1c0-0.5-0.2-0.8-0.5-1.1s-0.8-0.4-1.4-0.4c-0.4,0-0.7,0.1-1,0.2S18.9,8.8,18.8,9s-0.2,0.5-0.2,0.7
			c0,0.4,0.2,0.7,0.5,1c0.2,0.2,0.6,0.4,1.1,0.5c0.4,0.1,0.7,0.2,0.8,0.2c0.2,0.1,0.3,0.1,0.4,0.2c0.1,0.1,0.1,0.2,0.1,0.3
			c0,0.2-0.1,0.3-0.2,0.5C21,12.6,20.8,12.7,20.5,12.7z"/>
	</g>
</g>
<g>
	<path class="st2" d="M26.8,8l-6.4-7.1c-0.1-0.1-0.3-0.2-0.5-0.2L7,0.7l0,0c-0.5,0-1,0.2-1.4,0.7C5.2,1.7,5,2.3,5,2.9v2.9H2.4l0,0
		C1.9,5.8,1.4,6,1,6.4c-0.4,0.4-0.6,1-0.6,1.5v23.1c0,1.2,0.9,2.2,2,2.2h18.1c1.1,0,2-1,2-2.2v-2.9h2.6c1.1,0,2-1,2-2.2V8.5
		C27,8.3,26.9,8.1,26.8,8z M21.1,31c0,0.4-0.3,0.7-0.6,0.7H2.4c-0.4,0-0.6-0.3-0.6-0.7V7.9c0-0.2,0.1-0.4,0.2-0.5
		c0.1-0.1,0.3-0.2,0.5-0.2H5V26c0,1.2,0.9,2.2,2,2.2h14.1L21.1,31L21.1,31z M25.7,26c0,0.4-0.3,0.7-0.6,0.7H7
		c-0.4,0-0.6-0.3-0.6-0.7V2.9c0-0.2,0.1-0.4,0.2-0.5C6.6,2.2,6.8,2.1,7,2.1l0,0l12.3,0v6.4c0,0.4,0.3,0.7,0.6,0.7h5.8L25.7,26
		L25.7,26z"/>
	<path class="st2" d="M19.1,19.3l-0.9,0.8c-0.3,0.3-0.8,0.3-1.1-0.1l-2.8-3.6c-0.3-0.4-0.9-0.4-1.2,0l-4.7,7.4
		c-0.3,0.5,0,1.1,0.6,1.1h13.8c0.6,0,0.9-0.7,0.6-1.1l-3.2-4.4C20,19,19.5,19,19.1,19.3z"/>
	<ellipse class="st2" cx="21" cy="15.2" rx="1.9" ry="1.9"/>
</g>
</svg>
