<?xml version="1.0" encoding="utf-8"?>
<!-- Generator: Adobe Illustrator 23.0.2, SVG Export Plug-In . SVG Version: 6.00 Build 0)  -->
<svg version="1.1" id="Capa_1" xmlns="http://www.w3.org/2000/svg" xmlns:xlink="http://www.w3.org/1999/xlink" x="0px" y="0px"
	 viewBox="0 0 16.9 16.6" style="enable-background:new 0 0 16.9 16.6;" xml:space="preserve">
<style type="text/css">
	.st0{fill:none;stroke:#9B9B9B;stroke-miterlimit:10;}
	.st1{fill:#9B9B9B;}
</style>
<circle class="st0" cx="8.6" cy="8.5" r="7.6"/>
<g>
	<path class="st1" d="M7.6,10.6l0-0.4C7.5,9.5,7.8,8.6,8.5,7.7c0.7-0.8,1-1.4,1-2c0-0.8-0.5-1.3-1.4-1.3C7.6,4.3,7,4.5,6.6,4.8
		L6.3,3.9c0.5-0.4,1.3-0.6,2.1-0.6c1.7,0,2.5,1.1,2.5,2.2c0,1-0.6,1.7-1.3,2.6c-0.7,0.8-0.9,1.4-0.8,2.2l0,0.4H7.6z M7.3,12.7
		c0-0.6,0.4-0.9,0.9-0.9c0.5,0,0.9,0.4,0.9,0.9c0,0.5-0.3,0.9-0.9,0.9C7.7,13.6,7.3,13.2,7.3,12.7z"/>
</g>
</svg>
