<?xml version="1.0" encoding="utf-8"?>
<!-- Generator: Adobe Illustrator 23.0.2, SVG Export Plug-In . SVG Version: 6.00 Build 0)  -->
<svg version="1.1" id="Capa_1" xmlns="http://www.w3.org/2000/svg" xmlns:xlink="http://www.w3.org/1999/xlink" x="0px" y="0px"
	 viewBox="0 0 40.5 41.5" style="enable-background:new 0 0 40.5 41.5;" xml:space="preserve">
<style type="text/css">
	.st0{fill:#AEB6BB;}
</style>
<g>
	<g>
		<path class="st0" d="M33.8,6.3v-4H3.2v34.1h4.6v2.9h28.9v-33C36.7,6.3,33.8,6.3,33.8,6.3z M4.4,35.2V3.4h28.3v2.9v28.9H7.8H4.4z
			 M35.6,38.1H9v-1.7h24.9V7.5h1.7C35.6,7.5,35.6,38.1,35.6,38.1z"/>
	</g>
	<g>
		<path class="st0" d="M9.3,20.5c1.2,0,2.1-1.2,1.6-2.4l4-3.2c0.3,0.1,0.6,0.1,0.9,0l2.1,1.8c-0.7,1.2,0.1,2.6,1.5,2.6
			c1.1,0,2-1,1.7-2.2l3.5-1.5c1.6,1.5,3.9-0.8,2.4-2.4l1.1-2.7l0.5,1.3l1.1-0.4l-1.2-3.1l-3.1,1.2l0.4,1.1l1.2-0.4l-1,2.5
			c-1.2-0.2-2.1,0.8-2,2l-3.7,1.5c-0.4-0.3-1-0.4-1.5-0.2l-2.1-1.7c0.8-1.1-0.1-2.7-1.4-2.7c-1.4,0-2.2,1.5-1.4,2.7l-3.8,3
			c-1.2-0.7-2.6,0.2-2.6,1.5C7.5,19.7,8.3,20.5,9.3,20.5z M25.8,13.8c0.3,0,0.6,0.3,0.6,0.6S26.1,15,25.8,15c-0.3,0-0.6-0.3-0.6-0.6
			S25.4,13.8,25.8,13.8z M20,17.6c0,0.3-0.3,0.6-0.6,0.6c-0.3,0-0.6-0.3-0.6-0.6C18.8,16.8,20,16.8,20,17.6z M15.4,12.7
			c0.3,0,0.6,0.3,0.6,0.6s-0.3,0.6-0.6,0.6s-0.6-0.3-0.6-0.6S15,12.7,15.4,12.7z M9.9,18.7c0,0.3-0.3,0.6-0.6,0.6S8.7,19,8.7,18.7
			C8.7,18,9.9,18,9.9,18.7z"/>
	</g>
	<g>
		<polygon class="st0" points="26.9,23.1 25.8,23.1 25.8,32.3 23.4,32.3 23.4,20.2 22.3,20.2 22.3,32.3 20,32.3 20,23.6 18.8,23.6 
			18.8,32.3 16.5,32.3 16.5,27.7 15.4,27.7 15.4,32.3 13,32.3 13,27.7 11.9,27.7 11.9,32.3 9.6,32.3 9.6,24.8 8.4,24.8 8.4,32.3 
			6.7,32.3 6.7,33.5 30.4,33.5 30.4,32.3 26.9,32.3 		"/>
	</g>
</g>
</svg>
