<?xml version="1.0" encoding="utf-8"?>
<!-- Generator: Adobe Illustrator 23.0.2, SVG Export Plug-In . SVG Version: 6.00 Build 0)  -->
<svg version="1.1" id="Capa_1" xmlns="http://www.w3.org/2000/svg" xmlns:xlink="http://www.w3.org/1999/xlink" x="0px" y="0px"
	 viewBox="0 0 27.8 34.3" style="enable-background:new 0 0 27.8 34.3;" xml:space="preserve">
<style type="text/css">
	.st0{display:none;}
	.st1{display:inline;}
	.st2{fill:#FFFFFF;}
</style>
<g class="st0">
	<rect x="-331" y="-132.3" class="st1" width="404.7" height="211.3"/>
</g>
<g>
	<g>
		<path class="st2" d="M24.5,0.9h-21c-1.2,0-2.1,1-2.1,2.1v28c0,1.2,1,2.1,2.1,2.1h21c1.2,0,2.1-1,2.1-2.1V3
			C26.6,1.8,25.7,0.9,24.5,0.9z M24.4,3.1v27.8H3.6V3.1H24.4z"/>
		<rect x="6.4" y="24.9" class="st2" width="15.2" height="2.3"/>
		<rect x="6.4" y="21.4" class="st2" width="15.2" height="2.3"/>
		<polygon class="st2" points="8.5,14.6 9.5,12.9 10.6,14.6 12.1,14.6 10.3,11.9 11.9,9.3 10.5,9.3 9.5,10.8 8.6,9.3 7.1,9.3 
			8.8,11.8 7,14.6 		"/>
		<polygon class="st2" points="16.1,13.5 13.5,13.5 13.5,9.4 12.3,9.4 12.3,14.6 16.1,14.6 		"/>
		<path class="st2" d="M18.5,13.6c-0.3,0-0.5-0.1-0.7-0.2c-0.2-0.1-0.3-0.4-0.3-0.7l0-0.1l-1.2,0.1l0,0.1c0.1,0.6,0.3,1,0.6,1.4
			c0.4,0.3,0.9,0.5,1.5,0.5c0.5,0,0.8-0.1,1.1-0.2c0.3-0.1,0.6-0.3,0.7-0.6c0.2-0.3,0.3-0.6,0.3-0.9c0-0.3-0.1-0.6-0.2-0.9
			c-0.1-0.2-0.3-0.4-0.6-0.6c-0.2-0.1-0.6-0.3-1.1-0.4c-0.6-0.1-0.8-0.2-0.9-0.3c-0.1-0.1-0.1-0.1-0.1-0.2c0-0.1,0-0.2,0.1-0.2
			c0.1-0.1,0.4-0.2,0.6-0.2c0.3,0,0.4,0,0.6,0.1c0.1,0.1,0.2,0.3,0.2,0.5l0,0.1l1.2-0.1l0-0.1c0-0.5-0.2-0.9-0.5-1.2
			c-0.3-0.3-0.8-0.4-1.5-0.4c-0.4,0-0.7,0.1-1,0.2c-0.3,0.1-0.5,0.3-0.7,0.6c-0.2,0.2-0.2,0.5-0.2,0.8c0,0.4,0.2,0.8,0.5,1.1
			c0.2,0.2,0.6,0.4,1.2,0.5c0.5,0.1,0.7,0.2,0.8,0.2c0.1,0.1,0.3,0.1,0.3,0.2c0.1,0.1,0.1,0.1,0.1,0.2c0,0.1-0.1,0.3-0.2,0.4
			C19,13.5,18.8,13.6,18.5,13.6z"/>
	</g>
</g>
<g class="st0">
	<g class="st1">
		<path d="M26.5,0h-21c-1.1,0-2,0.9-2,2v28c0,1.1,0.9,2,2,2h21c1.1,0,2-0.9,2-2V2C28.5,0.9,27.6,0,26.5,0z M28,30
			c0,0.8-0.7,1.5-1.5,1.5h-21C4.7,31.5,4,30.8,4,30V2c0-0.8,0.7-1.5,1.5-1.5h21C27.3,0.5,28,1.2,28,2V30z"/>
		<rect x="8.5" y="24.8" width="15" height="0.5"/>
		<rect x="8.5" y="21.3" width="15" height="0.5"/>
		<polygon points="10.4,13.4 11.5,11.7 12.6,13.4 13.9,13.4 12.1,10.9 13.7,8.4 12.5,8.4 11.5,10 10.5,8.4 9.4,8.4 10.9,10.8 
			9.2,13.4 		"/>
		<polygon points="17.9,12.6 15.4,12.6 15.4,8.5 14.4,8.5 14.4,13.4 17.9,13.4 		"/>
		<path d="M20.5,12.7c-0.3,0-0.6-0.1-0.7-0.2c-0.2-0.2-0.3-0.4-0.4-0.7l-1,0.1c0.1,0.6,0.3,1,0.6,1.3s0.8,0.4,1.5,0.4
			c0.4,0,0.8-0.1,1.1-0.2c0.3-0.1,0.5-0.3,0.7-0.6c0.2-0.3,0.2-0.5,0.2-0.8c0-0.3-0.1-0.6-0.2-0.8c-0.1-0.2-0.3-0.4-0.6-0.5
			c-0.2-0.1-0.6-0.2-1.1-0.4c-0.5-0.1-0.8-0.2-0.9-0.3c-0.1-0.1-0.1-0.2-0.1-0.3c0-0.1,0.1-0.2,0.2-0.3c0.2-0.1,0.4-0.2,0.7-0.2
			c0.3,0,0.5,0.1,0.6,0.2c0.1,0.1,0.2,0.3,0.3,0.6l1,0c0-0.5-0.2-0.8-0.5-1.1c-0.3-0.3-0.8-0.4-1.4-0.4c-0.4,0-0.7,0.1-1,0.2
			S18.9,8.8,18.8,9c-0.1,0.2-0.2,0.5-0.2,0.7c0,0.4,0.2,0.7,0.5,1c0.2,0.2,0.6,0.4,1.1,0.5c0.4,0.1,0.7,0.2,0.8,0.2
			c0.2,0.1,0.3,0.1,0.4,0.2c0.1,0.1,0.1,0.2,0.1,0.3c0,0.2-0.1,0.3-0.2,0.5C21,12.6,20.8,12.7,20.5,12.7z"/>
	</g>
</g>
</svg>
